<svg id="Layer_1" data-name="Layer 1" xmlns="http://www.w3.org/2000/svg" viewBox="0 0 32 32"><defs><style>.cls-1{fill:#ff0000;}.cls-2{fill:#fff;}</style></defs><title>logo_youtube_192px_clr</title><rect class="cls-1" y="1" width="32" height="30" rx="6" ry="6"/><path class="cls-2" d="M26.54,10.67a2.78,2.78,0,0,0-1.94-2c-1.72-.46-8.6-.46-8.6-.46s-6.88,0-8.6.46a2.78,2.78,0,0,0-1.94,2A29,29,0,0,0,5,16a29,29,0,0,0,.46,5.33,2.78,2.78,0,0,0,1.94,2c1.72.46,8.6.46,8.6.46s6.88,0,8.6-.46a2.78,2.78,0,0,0,1.94-2A29,29,0,0,0,27,16,29,29,0,0,0,26.54,10.67Z"/><polygon class="cls-1" points="13.75 19.27 13.75 12.73 19.5 16 13.75 19.27"/></svg>