<svg id="FULL_COLOR_ICON_1_" xmlns="http://www.w3.org/2000/svg" width="31.996" height="31.996" viewBox="0 0 31.996 31.996">
  <path id="パス_1177" data-name="パス 1177" d="M25.063,32H6.932A6.932,6.932,0,0,1,0,25.063V6.932A6.932,6.932,0,0,1,6.932,0H25.063A6.932,6.932,0,0,1,32,6.932V25.063A6.932,6.932,0,0,1,25.063,32Z" fill="#00b900"/>
  <g id="TYPE_A_2_" transform="translate(4.298 5.135)">
    <g id="グループ_3293" data-name="グループ 3293">
      <path id="パス_1178" data-name="パス 1178" d="M39.418,28.715c0-5.213-5.226-9.455-11.649-9.455S16.12,23.5,16.12,28.715c0,4.674,4.143,8.588,9.743,9.327.379.083.9.251,1.027.573a2.382,2.382,0,0,1,.037,1.053l-.165,1c-.051.293-.235,1.152,1.008.629a37.625,37.625,0,0,0,9.153-6.764h0a8.416,8.416,0,0,0,2.5-5.815" transform="translate(-16.12 -19.26)" fill="#fff"/>
      <g id="グループ_3292" data-name="グループ 3292" transform="translate(3.821 6.935)">
        <path id="パス_1179" data-name="パス 1179" d="M48.063,45.28h-.816a.226.226,0,0,0-.227.227v5.077a.226.226,0,0,0,.227.227h.816a.226.226,0,0,0,.227-.227V45.507a.226.226,0,0,0-.227-.227" transform="translate(-42.602 -45.277)" fill="#00b900"/>
        <path id="パス_1180" data-name="パス 1180" d="M59.355,45.273h-.816a.226.226,0,0,0-.227.227v3.016l-2.325-3.141a.146.146,0,0,0-.019-.024l0,0c-.005-.005-.008-.011-.013-.013s0,0-.005,0a.058.058,0,0,0-.013-.011l-.005-.005-.011-.008L55.91,45.3l-.013-.008-.008,0-.013-.005-.008,0-.013-.005a.01.01,0,0,1-.008,0c-.005,0-.008,0-.013,0h-.011a.016.016,0,0,1-.011,0h-.835a.226.226,0,0,0-.227.227v5.077a.226.226,0,0,0,.227.227h.816a.226.226,0,0,0,.227-.227V47.56l2.328,3.146a.235.235,0,0,0,.059.056,0,0,0,0,1,0,0l.013.008a.009.009,0,0,1,.005,0s.008,0,.011.005.008,0,.011.005l.008,0,.016.005h0a.208.208,0,0,0,.059.008h.816a.226.226,0,0,0,.227-.227V45.5a.219.219,0,0,0-.221-.227" transform="translate(-48.271 -45.27)" fill="#00b900"/>
        <path id="パス_1181" data-name="パス 1181" d="M33.94,49.538H31.719V45.507a.226.226,0,0,0-.227-.227h-.816a.226.226,0,0,0-.227.227v5.077h0a.222.222,0,0,0,.064.157l0,0,0,0a.222.222,0,0,0,.157.064H33.94a.226.226,0,0,0,.227-.227v-.819a.226.226,0,0,0-.227-.227" transform="translate(-30.45 -45.277)" fill="#00b900"/>
        <path id="パス_1182" data-name="パス 1182" d="M79.343,46.549a.226.226,0,0,0,.227-.227v-.816a.226.226,0,0,0-.227-.227H76.077a.222.222,0,0,0-.157.064l0,0s0,0,0,.005a.222.222,0,0,0-.064.157h0v5.074h0a.222.222,0,0,0,.064.157l0,0,0,0a.222.222,0,0,0,.157.064H79.34a.226.226,0,0,0,.227-.227v-.819a.226.226,0,0,0-.227-.227H77.119V48.68H79.34a.226.226,0,0,0,.227-.227v-.816a.226.226,0,0,0-.227-.227H77.119v-.859h2.224Z" transform="translate(-63.745 -45.277)" fill="#00b900"/>
      </g>
    </g>
  </g>
</svg>
