<svg id="レイヤー_1" data-name="レイヤー 1" xmlns="http://www.w3.org/2000/svg" viewBox="0 0 32 32"><defs><style>.cls-1{fill:#1da1f2;}.cls-2{fill:#fff;}</style></defs><title>アートボード 1</title><g id="Dark_Blue" data-name="Dark Blue"><path class="cls-1" d="M28,32H4a4,4,0,0,1-4-4V4A4,4,0,0,1,4,0H28a4,4,0,0,1,4,4V28A4,4,0,0,1,28,32Z"/></g><g id="Logo_FIXED" data-name="Logo — FIXED"><path class="cls-2" d="M12.29,24.13A11.6,11.6,0,0,0,24,12.46c0-.18,0-.36,0-.53A8.47,8.47,0,0,0,26,9.8a8.51,8.51,0,0,1-2.36.65,4.13,4.13,0,0,0,1.81-2.27,8.3,8.3,0,0,1-2.61,1,4.1,4.1,0,0,0-7,3.74A11.67,11.67,0,0,1,7.39,8.62a4.16,4.16,0,0,0-.55,2.07A4.11,4.11,0,0,0,8.66,14.1a4,4,0,0,1-1.85-.51v.06a4.1,4.1,0,0,0,3.29,4A3.91,3.91,0,0,1,9,17.82a3.87,3.87,0,0,1-.77-.08,4.09,4.09,0,0,0,3.83,2.85A8.21,8.21,0,0,1,7,22.35a7.88,7.88,0,0,1-1-.05,11.69,11.69,0,0,0,6.28,1.83"/></g></svg>